<svg version="1.1" xmlns="http://www.w3.org/2000/svg" xmlns:xlink="http://www.w3.org/1999/xlink" x="0px" y="0px"
	 viewBox="0 0 40.9 41.5" style="enable-background:new 0 0 40.9 41.5;" xml:space="preserve">
<g>
	<path d="M20.5,0C9.2,0,0,9.3,0,20.8s9.2,20.8,20.5,20.8c11.3,0,20.5-9.3,20.5-20.8S31.8,0,20.5,0z M20.5,39.8
		c-10.3,0-18.7-8.5-18.7-19c0-10.5,8.4-19,18.7-19c10.3,0,18.7,8.5,18.7,19C39.2,31.3,30.8,39.8,20.5,39.8z"/>
	<path d="M28.7,22.7c2.5,0,4.5-2,4.5-4.5c0-0.7-0.2-1.4-0.5-2c0,0.6-0.5,1.1-1.2,1.1c-0.7,0-1.2-0.5-1.2-1.2s0.5-1.2,1.2-1.2
		c0.1,0,0.2,0,0.3,0.1c-0.8-0.8-1.9-1.2-3.1-1.2c-2.5,0-4.5,2-4.5,4.5S26.2,22.7,28.7,22.7z"/>
	<path d="M12.3,22.7c2.5,0,4.5-2,4.5-4.5c0-0.7-0.2-1.4-0.5-2c0,0.6-0.5,1.1-1.2,1.1c-0.7,0-1.2-0.5-1.2-1.2S14.4,15,15,15
		c0.1,0,0.2,0,0.3,0.1c-0.8-0.8-1.9-1.2-3.1-1.2c-2.5,0-4.5,2-4.5,4.5S9.8,22.7,12.3,22.7z"/>
	<path d="M8.6,12.7c0.7,0.1,1.2-0.7,1.9-1.2c0.6-0.4,1.7-0.6,3.6,0.2c0.1,0,0.5-0.1,0.6-0.5c0.1-0.3,0-0.5-0.1-0.6
		c-0.4-0.8-2.6-1.3-4.6-0.5c-1.1,0.4-2.3,1.4-2.2,2C8,12.5,8.3,12.7,8.6,12.7z"/>
	<path d="M26.3,11.6c0.6,0.4,1.4-0.2,2.2-0.3c0.7-0.1,1.8,0.1,3.2,1.6c0.1,0,0.5,0.1,0.8-0.2c0.2-0.2,0.2-0.5,0.2-0.6
		c-0.1-0.9-2-2.2-4-2.2c-1.2,0-2.7,0.4-2.8,1C25.9,11.1,26.1,11.4,26.3,11.6z"/>
	<path d="M33.8,25.3c-0.3-0.1-0.6,0.2-0.7,0.5c-1.8,5.3-6.8,8.8-12.3,8.8c-5.6,0-10.7-3.6-12.4-9c-0.1-0.3-0.4-0.4-0.7-0.3
		c-0.2,0.1-0.4,0.3-0.3,0.6c1.8,5.9,7.2,9.9,13.3,10c6.2,0.1,11.8-4,13.6-10C34.3,25.7,34.1,25.4,33.8,25.3z"/>
</g>
</svg>
